<mxfile host="app.diagrams.net" modified="2021-01-24T18:54:45.015Z" agent="5.0 (Macintosh; Intel Mac OS X 10_14_1) AppleWebKit/537.36 (KHTML, like Gecko) Chrome/87.0.4280.141 Safari/537.36" etag="sB0ZBxXLIrtWTzWrMb0G" version="14.2.7" type="github">
  <diagram id="C5RBs43oDa-KdzZeNtuy" name="Page-1">
    <mxGraphModel dx="1892" dy="1114" grid="1" gridSize="10" guides="1" tooltips="1" connect="1" arrows="1" fold="1" page="1" pageScale="1" pageWidth="827" pageHeight="1169" math="0" shadow="0">
      <root>
        <mxCell id="WIyWlLk6GJQsqaUBKTNV-0" />
        <mxCell id="WIyWlLk6GJQsqaUBKTNV-1" parent="WIyWlLk6GJQsqaUBKTNV-0" />
        <mxCell id="VfyPrUZPWlMN2wZB9xVi-4" value="" style="edgeStyle=orthogonalEdgeStyle;rounded=0;orthogonalLoop=1;jettySize=auto;html=1;" parent="WIyWlLk6GJQsqaUBKTNV-1" source="VfyPrUZPWlMN2wZB9xVi-0" target="VfyPrUZPWlMN2wZB9xVi-3" edge="1">
          <mxGeometry relative="1" as="geometry" />
        </mxCell>
        <mxCell id="VfyPrUZPWlMN2wZB9xVi-0" value="Start" style="ellipse;whiteSpace=wrap;html=1;" parent="WIyWlLk6GJQsqaUBKTNV-1" vertex="1">
          <mxGeometry x="275" y="50" width="70" height="50" as="geometry" />
        </mxCell>
        <mxCell id="VfyPrUZPWlMN2wZB9xVi-7" value="" style="edgeStyle=orthogonalEdgeStyle;rounded=0;orthogonalLoop=1;jettySize=auto;html=1;" parent="WIyWlLk6GJQsqaUBKTNV-1" source="VfyPrUZPWlMN2wZB9xVi-3" target="VfyPrUZPWlMN2wZB9xVi-6" edge="1">
          <mxGeometry relative="1" as="geometry" />
        </mxCell>
        <mxCell id="VfyPrUZPWlMN2wZB9xVi-3" value="Schedule" style="shape=step;perimeter=stepPerimeter;whiteSpace=wrap;html=1;fixedSize=1;" parent="WIyWlLk6GJQsqaUBKTNV-1" vertex="1">
          <mxGeometry x="250" y="132.5" width="120" height="57.5" as="geometry" />
        </mxCell>
        <mxCell id="VfyPrUZPWlMN2wZB9xVi-9" value="" style="edgeStyle=orthogonalEdgeStyle;rounded=0;orthogonalLoop=1;jettySize=auto;html=1;" parent="WIyWlLk6GJQsqaUBKTNV-1" source="VfyPrUZPWlMN2wZB9xVi-6" target="VfyPrUZPWlMN2wZB9xVi-8" edge="1">
          <mxGeometry relative="1" as="geometry" />
        </mxCell>
        <mxCell id="VfyPrUZPWlMN2wZB9xVi-6" value="Start trip" style="whiteSpace=wrap;html=1;" parent="WIyWlLk6GJQsqaUBKTNV-1" vertex="1">
          <mxGeometry x="250" y="220" width="120" height="50" as="geometry" />
        </mxCell>
        <mxCell id="VfyPrUZPWlMN2wZB9xVi-13" value="Yes" style="edgeStyle=orthogonalEdgeStyle;rounded=0;orthogonalLoop=1;jettySize=auto;html=1;" parent="WIyWlLk6GJQsqaUBKTNV-1" source="VfyPrUZPWlMN2wZB9xVi-8" target="VfyPrUZPWlMN2wZB9xVi-12" edge="1">
          <mxGeometry relative="1" as="geometry" />
        </mxCell>
        <mxCell id="VfyPrUZPWlMN2wZB9xVi-8" value="Booking" style="rhombus;whiteSpace=wrap;html=1;" parent="WIyWlLk6GJQsqaUBKTNV-1" vertex="1">
          <mxGeometry x="270" y="320" width="80" height="80" as="geometry" />
        </mxCell>
        <mxCell id="VfyPrUZPWlMN2wZB9xVi-15" value="" style="edgeStyle=orthogonalEdgeStyle;rounded=0;orthogonalLoop=1;jettySize=auto;html=1;" parent="WIyWlLk6GJQsqaUBKTNV-1" source="VfyPrUZPWlMN2wZB9xVi-12" target="VfyPrUZPWlMN2wZB9xVi-14" edge="1">
          <mxGeometry relative="1" as="geometry" />
        </mxCell>
        <mxCell id="VfyPrUZPWlMN2wZB9xVi-12" value="Alert driver about booking details" style="whiteSpace=wrap;html=1;" parent="WIyWlLk6GJQsqaUBKTNV-1" vertex="1">
          <mxGeometry x="413" y="300" width="90" height="60" as="geometry" />
        </mxCell>
        <mxCell id="VfyPrUZPWlMN2wZB9xVi-17" value="Yes" style="edgeStyle=orthogonalEdgeStyle;rounded=0;orthogonalLoop=1;jettySize=auto;html=1;" parent="WIyWlLk6GJQsqaUBKTNV-1" source="VfyPrUZPWlMN2wZB9xVi-14" target="VfyPrUZPWlMN2wZB9xVi-16" edge="1">
          <mxGeometry relative="1" as="geometry" />
        </mxCell>
        <mxCell id="VfyPrUZPWlMN2wZB9xVi-14" value="onboard" style="rhombus;whiteSpace=wrap;html=1;" parent="WIyWlLk6GJQsqaUBKTNV-1" vertex="1">
          <mxGeometry x="418" y="455" width="80" height="60" as="geometry" />
        </mxCell>
        <mxCell id="VfyPrUZPWlMN2wZB9xVi-21" value="" style="edgeStyle=orthogonalEdgeStyle;rounded=0;orthogonalLoop=1;jettySize=auto;html=1;" parent="WIyWlLk6GJQsqaUBKTNV-1" source="VfyPrUZPWlMN2wZB9xVi-16" target="VfyPrUZPWlMN2wZB9xVi-20" edge="1">
          <mxGeometry relative="1" as="geometry" />
        </mxCell>
        <mxCell id="VfyPrUZPWlMN2wZB9xVi-16" value="Driver scans their ticket" style="whiteSpace=wrap;html=1;" parent="WIyWlLk6GJQsqaUBKTNV-1" vertex="1">
          <mxGeometry x="540" y="400" width="95" height="50" as="geometry" />
        </mxCell>
        <mxCell id="VfyPrUZPWlMN2wZB9xVi-19" value="No" style="endArrow=classic;html=1;exitX=0;exitY=0.5;exitDx=0;exitDy=0;" parent="WIyWlLk6GJQsqaUBKTNV-1" source="VfyPrUZPWlMN2wZB9xVi-14" edge="1">
          <mxGeometry width="50" height="50" relative="1" as="geometry">
            <mxPoint x="390" y="330" as="sourcePoint" />
            <mxPoint x="455" y="370" as="targetPoint" />
            <Array as="points">
              <mxPoint x="390" y="410" />
              <mxPoint x="390" y="390" />
              <mxPoint x="400" y="370" />
            </Array>
          </mxGeometry>
        </mxCell>
        <mxCell id="VfyPrUZPWlMN2wZB9xVi-23" value="" style="edgeStyle=orthogonalEdgeStyle;rounded=0;orthogonalLoop=1;jettySize=auto;html=1;" parent="WIyWlLk6GJQsqaUBKTNV-1" source="VfyPrUZPWlMN2wZB9xVi-20" target="VfyPrUZPWlMN2wZB9xVi-22" edge="1">
          <mxGeometry relative="1" as="geometry" />
        </mxCell>
        <mxCell id="VfyPrUZPWlMN2wZB9xVi-20" value="Add to driver statistics board" style="whiteSpace=wrap;html=1;" parent="WIyWlLk6GJQsqaUBKTNV-1" vertex="1">
          <mxGeometry x="678.75" y="395" width="77.5" height="60" as="geometry" />
        </mxCell>
        <mxCell id="VfyPrUZPWlMN2wZB9xVi-26" value="Yes" style="edgeStyle=orthogonalEdgeStyle;rounded=0;orthogonalLoop=1;jettySize=auto;html=1;" parent="WIyWlLk6GJQsqaUBKTNV-1" source="VfyPrUZPWlMN2wZB9xVi-22" target="VfyPrUZPWlMN2wZB9xVi-25" edge="1">
          <mxGeometry relative="1" as="geometry" />
        </mxCell>
        <mxCell id="VfyPrUZPWlMN2wZB9xVi-22" value="Drop-off" style="rhombus;whiteSpace=wrap;html=1;" parent="WIyWlLk6GJQsqaUBKTNV-1" vertex="1">
          <mxGeometry x="678.75" y="520" width="80" height="80" as="geometry" />
        </mxCell>
        <mxCell id="VfyPrUZPWlMN2wZB9xVi-33" value="" style="edgeStyle=orthogonalEdgeStyle;rounded=0;orthogonalLoop=1;jettySize=auto;html=1;" parent="WIyWlLk6GJQsqaUBKTNV-1" source="VfyPrUZPWlMN2wZB9xVi-25" target="VfyPrUZPWlMN2wZB9xVi-32" edge="1">
          <mxGeometry relative="1" as="geometry" />
        </mxCell>
        <mxCell id="VfyPrUZPWlMN2wZB9xVi-25" value="Confirm drop-off" style="whiteSpace=wrap;html=1;" parent="WIyWlLk6GJQsqaUBKTNV-1" vertex="1">
          <mxGeometry x="668.75" y="640" width="97.5" height="40" as="geometry" />
        </mxCell>
        <mxCell id="VfyPrUZPWlMN2wZB9xVi-27" value="No" style="endArrow=classic;html=1;exitX=0;exitY=0.5;exitDx=0;exitDy=0;" parent="WIyWlLk6GJQsqaUBKTNV-1" source="VfyPrUZPWlMN2wZB9xVi-22" edge="1">
          <mxGeometry width="50" height="50" relative="1" as="geometry">
            <mxPoint x="580" y="540" as="sourcePoint" />
            <mxPoint x="718" y="470" as="targetPoint" />
            <Array as="points">
              <mxPoint x="640" y="520" />
              <mxPoint x="640" y="480" />
            </Array>
          </mxGeometry>
        </mxCell>
        <mxCell id="VfyPrUZPWlMN2wZB9xVi-32" value="End" style="ellipse;whiteSpace=wrap;html=1;" parent="WIyWlLk6GJQsqaUBKTNV-1" vertex="1">
          <mxGeometry x="688.75" y="710" width="60" height="40" as="geometry" />
        </mxCell>
        <mxCell id="VfyPrUZPWlMN2wZB9xVi-35" value="&lt;b&gt;&lt;u&gt;Booking process&lt;/u&gt;&lt;/b&gt;" style="text;html=1;strokeColor=none;fillColor=none;align=center;verticalAlign=middle;whiteSpace=wrap;rounded=0;" parent="WIyWlLk6GJQsqaUBKTNV-1" vertex="1">
          <mxGeometry x="255" y="20" width="110" height="20" as="geometry" />
        </mxCell>
        <mxCell id="VfyPrUZPWlMN2wZB9xVi-36" value="&lt;b&gt;&lt;u&gt;&lt;font style=&quot;font-size: 16px&quot;&gt;Trips made&lt;/font&gt;&lt;/u&gt;&lt;/b&gt;" style="text;html=1;strokeColor=none;fillColor=none;align=center;verticalAlign=middle;whiteSpace=wrap;rounded=0;" parent="WIyWlLk6GJQsqaUBKTNV-1" vertex="1">
          <mxGeometry x="270" y="730" width="120" height="20" as="geometry" />
        </mxCell>
        <mxCell id="VfyPrUZPWlMN2wZB9xVi-39" value="" style="edgeStyle=orthogonalEdgeStyle;rounded=0;orthogonalLoop=1;jettySize=auto;html=1;" parent="WIyWlLk6GJQsqaUBKTNV-1" source="VfyPrUZPWlMN2wZB9xVi-37" target="VfyPrUZPWlMN2wZB9xVi-38" edge="1">
          <mxGeometry relative="1" as="geometry" />
        </mxCell>
        <mxCell id="VfyPrUZPWlMN2wZB9xVi-37" value="start" style="ellipse;whiteSpace=wrap;html=1;" parent="WIyWlLk6GJQsqaUBKTNV-1" vertex="1">
          <mxGeometry x="230" y="760" width="70" height="50" as="geometry" />
        </mxCell>
        <mxCell id="VfyPrUZPWlMN2wZB9xVi-41" value="" style="edgeStyle=orthogonalEdgeStyle;rounded=0;orthogonalLoop=1;jettySize=auto;html=1;" parent="WIyWlLk6GJQsqaUBKTNV-1" source="VfyPrUZPWlMN2wZB9xVi-38" target="VfyPrUZPWlMN2wZB9xVi-40" edge="1">
          <mxGeometry relative="1" as="geometry" />
        </mxCell>
        <mxCell id="VfyPrUZPWlMN2wZB9xVi-38" value="Profile page" style="shape=step;perimeter=stepPerimeter;whiteSpace=wrap;html=1;fixedSize=1;" parent="WIyWlLk6GJQsqaUBKTNV-1" vertex="1">
          <mxGeometry x="205" y="840" width="120" height="50" as="geometry" />
        </mxCell>
        <mxCell id="VfyPrUZPWlMN2wZB9xVi-48" value="Yes" style="edgeStyle=orthogonalEdgeStyle;rounded=0;orthogonalLoop=1;jettySize=auto;html=1;" parent="WIyWlLk6GJQsqaUBKTNV-1" source="VfyPrUZPWlMN2wZB9xVi-40" target="VfyPrUZPWlMN2wZB9xVi-47" edge="1">
          <mxGeometry relative="1" as="geometry" />
        </mxCell>
        <mxCell id="VfyPrUZPWlMN2wZB9xVi-59" style="edgeStyle=orthogonalEdgeStyle;rounded=0;orthogonalLoop=1;jettySize=auto;html=1;entryX=0.5;entryY=0;entryDx=0;entryDy=0;" parent="WIyWlLk6GJQsqaUBKTNV-1" source="VfyPrUZPWlMN2wZB9xVi-40" target="VfyPrUZPWlMN2wZB9xVi-57" edge="1">
          <mxGeometry relative="1" as="geometry" />
        </mxCell>
        <mxCell id="VfyPrUZPWlMN2wZB9xVi-40" value="Ends trip" style="rhombus;whiteSpace=wrap;html=1;" parent="WIyWlLk6GJQsqaUBKTNV-1" vertex="1">
          <mxGeometry x="225" y="920" width="80" height="40" as="geometry" />
        </mxCell>
        <mxCell id="VfyPrUZPWlMN2wZB9xVi-50" value="" style="edgeStyle=orthogonalEdgeStyle;rounded=0;orthogonalLoop=1;jettySize=auto;html=1;" parent="WIyWlLk6GJQsqaUBKTNV-1" source="VfyPrUZPWlMN2wZB9xVi-47" target="VfyPrUZPWlMN2wZB9xVi-49" edge="1">
          <mxGeometry relative="1" as="geometry" />
        </mxCell>
        <mxCell id="VfyPrUZPWlMN2wZB9xVi-47" value="Add on number of trips completed" style="whiteSpace=wrap;html=1;" parent="WIyWlLk6GJQsqaUBKTNV-1" vertex="1">
          <mxGeometry x="370" y="925" width="105" height="30" as="geometry" />
        </mxCell>
        <mxCell id="VfyPrUZPWlMN2wZB9xVi-53" value="yes" style="edgeStyle=orthogonalEdgeStyle;rounded=0;orthogonalLoop=1;jettySize=auto;html=1;" parent="WIyWlLk6GJQsqaUBKTNV-1" source="VfyPrUZPWlMN2wZB9xVi-49" target="VfyPrUZPWlMN2wZB9xVi-52" edge="1">
          <mxGeometry relative="1" as="geometry" />
        </mxCell>
        <mxCell id="VfyPrUZPWlMN2wZB9xVi-58" value="" style="edgeStyle=orthogonalEdgeStyle;rounded=0;orthogonalLoop=1;jettySize=auto;html=1;" parent="WIyWlLk6GJQsqaUBKTNV-1" source="VfyPrUZPWlMN2wZB9xVi-49" target="VfyPrUZPWlMN2wZB9xVi-57" edge="1">
          <mxGeometry relative="1" as="geometry" />
        </mxCell>
        <mxCell id="VfyPrUZPWlMN2wZB9xVi-49" value="Verifies ticket" style="rhombus;whiteSpace=wrap;html=1;" parent="WIyWlLk6GJQsqaUBKTNV-1" vertex="1">
          <mxGeometry x="391.25" y="990" width="62.5" height="50" as="geometry" />
        </mxCell>
        <mxCell id="VfyPrUZPWlMN2wZB9xVi-55" value="" style="edgeStyle=orthogonalEdgeStyle;rounded=0;orthogonalLoop=1;jettySize=auto;html=1;" parent="WIyWlLk6GJQsqaUBKTNV-1" source="VfyPrUZPWlMN2wZB9xVi-52" target="VfyPrUZPWlMN2wZB9xVi-54" edge="1">
          <mxGeometry relative="1" as="geometry" />
        </mxCell>
        <mxCell id="VfyPrUZPWlMN2wZB9xVi-52" value="Add on statisctics (Earning &amp;amp; n0 of passengers carried)" style="whiteSpace=wrap;html=1;" parent="WIyWlLk6GJQsqaUBKTNV-1" vertex="1">
          <mxGeometry x="520" y="993.75" width="115" height="42.5" as="geometry" />
        </mxCell>
        <mxCell id="VfyPrUZPWlMN2wZB9xVi-54" value="End" style="ellipse;whiteSpace=wrap;html=1;" parent="WIyWlLk6GJQsqaUBKTNV-1" vertex="1">
          <mxGeometry x="536.25" y="1070" width="82.5" height="40" as="geometry" />
        </mxCell>
        <mxCell id="VfyPrUZPWlMN2wZB9xVi-60" style="edgeStyle=orthogonalEdgeStyle;rounded=0;orthogonalLoop=1;jettySize=auto;html=1;entryX=0.126;entryY=0.557;entryDx=0;entryDy=0;entryPerimeter=0;exitX=0;exitY=0.5;exitDx=0;exitDy=0;" parent="WIyWlLk6GJQsqaUBKTNV-1" source="VfyPrUZPWlMN2wZB9xVi-57" target="VfyPrUZPWlMN2wZB9xVi-38" edge="1">
          <mxGeometry relative="1" as="geometry">
            <mxPoint x="220" y="1015" as="sourcePoint" />
            <Array as="points">
              <mxPoint x="180" y="1015" />
              <mxPoint x="180" y="868" />
            </Array>
          </mxGeometry>
        </mxCell>
        <mxCell id="VfyPrUZPWlMN2wZB9xVi-57" value="" style="ellipse;whiteSpace=wrap;html=1;" parent="WIyWlLk6GJQsqaUBKTNV-1" vertex="1">
          <mxGeometry x="255" y="1007.5" width="20" height="15" as="geometry" />
        </mxCell>
        <mxCell id="VfyPrUZPWlMN2wZB9xVi-62" style="edgeStyle=orthogonalEdgeStyle;rounded=0;orthogonalLoop=1;jettySize=auto;html=1;exitX=0.5;exitY=1;exitDx=0;exitDy=0;" parent="WIyWlLk6GJQsqaUBKTNV-1" source="VfyPrUZPWlMN2wZB9xVi-47" target="VfyPrUZPWlMN2wZB9xVi-47" edge="1">
          <mxGeometry relative="1" as="geometry" />
        </mxCell>
        <mxCell id="VfyPrUZPWlMN2wZB9xVi-66" value="No" style="endArrow=classic;html=1;exitX=0;exitY=0.5;exitDx=0;exitDy=0;" parent="WIyWlLk6GJQsqaUBKTNV-1" source="VfyPrUZPWlMN2wZB9xVi-8" edge="1">
          <mxGeometry width="50" height="50" relative="1" as="geometry">
            <mxPoint x="190" y="355" as="sourcePoint" />
            <mxPoint x="310" y="290" as="targetPoint" />
            <Array as="points">
              <mxPoint x="220" y="360" />
              <mxPoint x="220" y="300" />
            </Array>
          </mxGeometry>
        </mxCell>
      </root>
    </mxGraphModel>
  </diagram>
</mxfile>
